<svg width="23" height="23" viewBox="0 0 23 23" fill="none" xmlns="http://www.w3.org/2000/svg">
<path d="M4 4.15625C4 3.56082 4.21052 3.05259 4.63155 2.63155C5.05258 2.21052 5.56082 2 6.15625 2H8.3125C8.90793 2 9.41616 2.21052 9.8372 2.63155C10.2582 3.05259 10.4687 3.56082 10.4687 4.15625V6.3125C10.4687 6.90793 10.2582 7.41617 9.8372 7.8372C9.41616 8.25823 8.90793 8.46875 8.3125 8.46875H6.15625C5.56082 8.46875 5.05259 8.25823 4.63155 7.8372C4.21052 7.41616 4 6.90793 4 6.3125V4.15625ZM4 13.5C4 12.9046 4.21052 12.3963 4.63155 11.9753C5.05258 11.5543 5.56082 11.3437 6.15625 11.3437H8.3125C8.90793 11.3437 9.41616 11.5543 9.8372 11.9753C10.2582 12.3963 10.4687 12.9046 10.4687 13.5V15.6562C10.4687 16.2517 10.2582 16.7599 9.8372 17.1809C9.41616 17.602 8.90793 17.8125 8.3125 17.8125H6.15625C5.56082 17.8125 5.05258 17.602 4.63155 17.1809C4.21052 16.7599 4 16.2517 4 15.6562V13.5ZM13.3437 4.15625C13.3437 3.56082 13.5543 3.05259 13.9753 2.63155C14.3963 2.21052 14.9046 2 15.5 2H17.6562C18.2517 2 18.7599 2.21052 19.1809 2.63155C19.602 3.05258 19.8125 3.56082 19.8125 4.15625V6.3125C19.8125 6.90793 19.602 7.41616 19.1809 7.8372C18.7599 8.25823 18.2517 8.46875 17.6562 8.46875H15.5C14.9046 8.46875 14.3963 8.25823 13.9753 7.8372C13.5543 7.41616 13.3437 6.90793 13.3437 6.3125V4.15625ZM13.3437 13.5C13.3437 12.9046 13.5543 12.3963 13.9753 11.9753C14.3963 11.5543 14.9046 11.3437 15.5 11.3437H17.6562C18.2517 11.3437 18.7599 11.5543 19.1809 11.9753C19.602 12.3963 19.8125 12.9046 19.8125 13.5V15.6562C19.8125 16.2517 19.602 16.7599 19.1809 17.1809C18.7599 17.602 18.2517 17.8125 17.6562 17.8125H15.5C14.9046 17.8125 14.3963 17.602 13.9753 17.1809C13.5543 16.7599 13.3437 16.2517 13.3437 15.6562V13.5Z" stroke="white" stroke-width="1.25" stroke-linejoin="round"/>
</svg>
