<svg width="36" height="36" viewBox="0 0 36 36" fill="none" xmlns="http://www.w3.org/2000/svg">
<path d="M3.78125 9.71875C3.78125 7.64768 5.46018 5.96875 7.53125 5.96875H28.4688C30.5398 5.96875 32.2188 7.64768 32.2188 9.71875V26.2813C32.2188 28.3523 30.5398 30.0312 28.4687 30.0312H7.53125C5.46018 30.0312 3.78125 28.3523 3.78125 26.2813V9.71875Z" stroke="#4B5563" strokeWidth="2.5" strokeLinejoin="round"/>
<circle cx="23.4688" cy="12.5312" r="2.1875" stroke="#4B5563" strokeWidth="2.5"/>
<path d="M21.2812 23.4554L15.0838 17.2696C14.6745 16.8603 14.1805 16.6471 13.602 16.63C13.0234 16.6129 12.5177 16.7964 12.0849 17.1807L3.78125 24.5635M15.8125 30.0323L24.2439 21.6008C24.6435 21.2004 25.1259 20.9871 25.6909 20.9609C26.256 20.9347 26.756 21.1024 27.1909 21.4641L32.2188 25.6573" stroke="#4B5563" strokeWidth="2.5" strokeLinecap="round" strokeLinejoin="round"/>
</svg>
