<svg width="23" height="20" viewBox="0 0 23 20" fill="none" xmlns="http://www.w3.org/2000/svg">
<path d="M13.145 0C10.4226 0 8.09884 0.976311 6.1738 2.92893C4.24877 4.88155 3.28625 7.23858 3.28625 10H0L4.38166 14.4444L8.76332 10H5.47708C5.47708 5.71111 8.91668 2.22222 13.145 2.22222C17.3733 2.22222 20.8129 5.71111 20.8129 10C20.8129 14.2889 17.3733 17.7778 13.145 17.7778C11.0637 17.7778 9.17958 16.9333 7.79936 15.5667L6.24387 17.1333C7.16409 18.0519 8.22158 18.7593 9.41632 19.2556C10.6111 19.7519 11.854 20 13.145 20C15.8667 19.999 18.1897 19.0223 20.114 17.0698C22.0382 15.1174 23.0003 12.7607 23.0003 10C23.0003 7.23925 22.0382 4.88263 20.114 2.93015C18.1897 0.97767 15.8667 0.000952968 13.145 0ZM15.3358 8.88889V7.77778C15.3358 6.55556 14.3499 5.55556 13.145 5.55556C11.94 5.55556 10.9542 6.55556 10.9542 7.77778V8.88889C10.3517 8.88889 9.85874 9.38889 9.85874 10V13.3333C9.85874 13.9444 10.3517 14.4444 10.9542 14.4444H15.3358C15.9383 14.4444 16.4312 13.9444 16.4312 13.3333V10C16.4312 9.38889 15.9383 8.88889 15.3358 8.88889ZM14.2404 8.88889H12.0496V7.77778C12.0496 7.16667 12.5425 6.66667 13.145 6.66667C13.7475 6.66667 14.2404 7.16667 14.2404 7.77778V8.88889Z" fill="#ffffff"/>
</svg>
