<svg width="21" height="16" viewBox="0 0 21 16" fill="none" xmlns="http://www.w3.org/2000/svg">
<path d="M19 0.650391C20.1046 0.650391 21 1.54582 21 2.65039V13.3506L20.9893 13.5547C20.8937 14.4962 20.1456 15.2444 19.2041 15.3398L19 15.3506H2L1.7959 15.3398C0.854402 15.2444 0.106283 14.4962 0.0107422 13.5547L0 13.3506V2.65039C0 1.54582 0.895431 0.650391 2 0.650391H19ZM10.5 11.1504L1.5 4.85059V13.3506C1.50011 13.6266 1.72392 13.8506 2 13.8506H19C19.2761 13.8506 19.4999 13.6266 19.5 13.3506V4.85059L10.5 11.1504ZM2 2.15039C1.72386 2.15039 1.5 2.37425 1.5 2.65039V3.01855L10.5 9.31934L19.5 3.01953V2.65039C19.5 2.37425 19.2761 2.15039 19 2.15039H2Z" fill="#ffffff"/>
</svg>
