<svg width="36" height="36" viewBox="0 0 36 36" fill="none" xmlns="http://www.w3.org/2000/svg">
<path d="M21.75 25.5V27.0625C21.75 27.5803 21.3303 28 20.8125 28H10.1875C9.66973 28 9.25 27.5803 9.25 27.0625V12.6875C9.25 12.1697 9.66973 11.75 10.1875 11.75H13V23.3125C13 24.5187 13.9813 25.5 15.1875 25.5H21.75ZM21.75 12.0625V8H15.1875C14.6697 8 14.25 8.41973 14.25 8.9375V23.3125C14.25 23.8303 14.6697 24.25 15.1875 24.25H25.8125C26.3303 24.25 26.75 23.8303 26.75 23.3125V13H22.6875C22.1719 13 21.75 12.5781 21.75 12.0625ZM26.4754 10.8504L23.8996 8.27457C23.8117 8.18667 23.7103 8.11893 23.5954 8.07136C23.4806 8.02379 23.361 8 23.2367 8H23V11.75H26.75V11.5133C26.75 11.389 26.7262 11.2694 26.6786 11.1546C26.6311 11.0397 26.5633 10.9383 26.4754 10.8504Z" fill="#4B5563"/>
</svg>
