<svg width="16" height="16" viewBox="0 0 16 16" fill="none" xmlns="http://www.w3.org/2000/svg">
<path d="M13.4999 14.0007C13.4336 14.0008 13.3698 13.9882 13.3085 13.9628C13.2473 13.9374 13.1932 13.9012 13.1465 13.8542L2.14647 2.85416C2.05308 2.75587 2.00726 2.63894 2.009 2.50337C2.01073 2.3678 2.05953 2.25209 2.1554 2.15622C2.25127 2.06035 2.36699 2.01155 2.50255 2.00981C2.63812 2.00808 2.75505 2.0539 2.85334 2.14728L13.8533 13.1473C13.9248 13.2188 13.9704 13.3041 13.9901 13.4032C14.0098 13.5024 14.0003 13.5986 13.9616 13.692C13.923 13.7854 13.8616 13.8602 13.7776 13.9164C13.6935 13.9726 13.601 14.0007 13.4999 14.0007ZM7.98928 12.0007C6.69272 12.0007 5.4424 11.617 4.27303 10.8601C3.20834 10.1726 2.2499 9.18791 1.50115 8.01635V8.01385C2.12428 7.12103 2.80678 6.36604 3.5399 5.75729C3.55393 5.74556 3.56138 5.73057 3.56225 5.71231C3.56312 5.69405 3.55713 5.67842 3.54428 5.66541L2.92178 5.04385C2.91031 5.03228 2.89644 5.02614 2.88017 5.02542C2.8639 5.0247 2.84954 5.02959 2.83709 5.0401C2.05834 5.69635 1.33553 6.50135 0.678342 7.44385C0.562718 7.6098 0.503085 7.79389 0.499443 7.99612C0.495802 8.19835 0.548768 8.38446 0.658342 8.55447C1.48365 9.84603 2.54584 10.9338 3.72959 11.6998C5.0624 12.5632 6.49678 13.0007 7.98928 13.0007C8.39209 12.9995 8.79218 12.9659 9.18955 12.8999C9.58692 12.834 9.97641 12.7365 10.358 12.6076C10.38 12.6002 10.3936 12.5851 10.3988 12.5626C10.4041 12.54 10.3985 12.5205 10.3821 12.5042L9.70772 11.8298C9.69193 11.8144 9.67336 11.8039 9.65201 11.7983C9.63066 11.7927 9.60934 11.7928 9.58803 11.7985C9.3269 11.8658 9.06257 11.9163 8.79505 11.9501C8.52752 11.984 8.25893 12.0008 7.98928 12.0007ZM15.3387 7.45697C14.5118 6.17822 13.439 5.09197 12.2365 4.31541C10.9062 3.45541 9.4374 3.00072 7.98928 3.00072C7.59074 3.00143 7.19507 3.03543 6.80225 3.10273C6.40944 3.17002 6.02501 3.26967 5.64897 3.40166C5.62713 3.40926 5.61366 3.42433 5.60855 3.44688C5.60344 3.46942 5.6091 3.48883 5.62553 3.5051L6.29897 4.17853C6.31492 4.19422 6.33373 4.20485 6.3554 4.21044C6.37706 4.21602 6.39867 4.2158 6.42022 4.20978C6.67599 4.14059 6.93521 4.0885 7.19785 4.0535C7.4605 4.01851 7.72431 4.00092 7.98928 4.00072C9.26084 4.00072 10.5074 4.38916 11.694 5.15697C12.7787 5.85697 13.7483 6.84072 14.499 8.00072C14.4995 8.00146 14.4998 8.00229 14.4998 8.00322C14.4998 8.00415 14.4995 8.00499 14.499 8.00572C14.2265 8.43462 13.9223 8.83963 13.5863 9.22077C13.2503 9.6019 12.8866 9.95449 12.4952 10.2785C12.481 10.2902 12.4735 10.3052 12.4725 10.3236C12.4716 10.3419 12.4776 10.3577 12.4905 10.3707L13.1124 10.9923C13.1238 11.0038 13.1376 11.01 13.1538 11.0107C13.17 11.0115 13.1843 11.0067 13.1968 10.9963C13.6146 10.6446 14.0033 10.2631 14.3629 9.85196C14.7225 9.44083 15.0488 9.00479 15.3418 8.54385C15.4475 8.37797 15.5001 8.19668 15.4996 7.99995C15.499 7.80323 15.4454 7.62223 15.3387 7.45697Z" fill="#4B5563"/>
<path d="M7.99989 5C7.88753 4.99994 7.77553 5.00618 7.66387 5.01872C7.55222 5.03126 7.44162 5.05002 7.33208 5.075C7.3208 5.07734 7.31093 5.08241 7.30246 5.09021C7.29399 5.098 7.28812 5.10742 7.28485 5.11846C7.28158 5.1295 7.28138 5.1406 7.28425 5.15175C7.28711 5.1629 7.29264 5.17253 7.30083 5.18063L10.8193 8.69813C10.8274 8.70631 10.837 8.71184 10.8481 8.7147C10.8593 8.71757 10.8704 8.71737 10.8814 8.7141C10.8925 8.71083 10.9019 8.70496 10.9097 8.69649C10.9175 8.68802 10.9225 8.67815 10.9249 8.66688C11.139 7.72795 10.9457 6.88207 10.3452 6.12923C9.74468 5.37639 8.9629 4.99998 7.99989 5ZM5.18051 7.30188C5.17241 7.29369 5.16279 7.28817 5.15164 7.2853C5.14049 7.28243 5.12939 7.28263 5.11835 7.2859C5.10731 7.28917 5.09789 7.29504 5.09009 7.30351C5.0823 7.31198 5.07723 7.32185 5.07489 7.33313C4.82807 8.41141 5.09575 9.34165 5.87793 10.1238C6.66012 10.906 7.59035 11.1737 8.66864 10.9269C8.67991 10.9245 8.68978 10.9195 8.69825 10.9117C8.70673 10.9039 8.7126 10.8945 8.71586 10.8834C8.71913 10.8724 8.71933 10.8613 8.71646 10.8501C8.7136 10.839 8.70807 10.8293 8.69989 10.8213L5.18051 7.30188Z" fill="#4B5563"/>
</svg>
