<svg width="20" height="20" viewBox="0 0 20 20" fill="none" xmlns="http://www.w3.org/2000/svg">
<path d="M11.875 13.125V14.6875C11.875 15.119 11.7225 15.4873 11.4174 15.7924C11.1123 16.0975 10.744 16.25 10.3125 16.25H4.0625C3.63103 16.25 3.26274 16.0975 2.95765 15.7924C2.65255 15.4873 2.5 15.119 2.5 14.6875V5.3125C2.5 4.88103 2.65255 4.51274 2.95765 4.20765C3.26274 3.90255 3.63103 3.75 4.0625 3.75H10C10.8629 3.75 11.875 4.44961 11.875 5.3125V6.875M14.375 13.125L17.5 10L14.375 6.875M6.875 10H16.875" stroke="#4B5563" strokeWidth="1.25" strokeLinecap="round" strokeLinejoin="round"/>
</svg>
