<svg width="24" height="24" viewBox="0 0 24 24" fill="none" xmlns="http://www.w3.org/2000/svg">
<path d="M15.0002 18V18.75C15.0002 19.5784 14.7073 20.2855 14.1216 20.8713C13.5358 21.4571 12.8287 21.75 12.0002 21.75C11.1718 21.75 10.4647 21.4571 9.87891 20.8713C9.29312 20.2855 9.00023 19.5784 9.00023 18.75V18M20.0477 16.4733C18.844 15 17.9941 14.25 17.9941 10.1883C17.9941 6.46875 16.0948 5.14359 14.5315 4.5C14.3238 4.41469 14.1284 4.21875 14.0651 4.00547C13.7909 3.07219 13.0221 2.25 12.0002 2.25C10.9784 2.25 10.2091 3.07266 9.93773 4.00641C9.87445 4.22203 9.67898 4.41469 9.47133 4.5C7.90617 5.14453 6.00867 6.465 6.00867 10.1883C6.00633 14.25 5.15648 15 3.95273 16.4733C3.45398 17.0836 3.89086 18 4.7632 18H19.242C20.1096 18 20.5437 17.0808 20.0477 16.4733Z" stroke="#ffffff" strokeWidth="1.5" strokeLinecap="round" strokeLinejoin="round"/>
</svg>
