<svg width="256" height="256" viewBox="0 0 256 256" fill="none" xmlns="http://www.w3.org/2000/svg">
<path d="M236 118C236 153.755 220.109 185.803 194.963 207.458C192.097 209.92 189.121 212.241 186.021 214.438C168.307 226.948 146.978 234.722 123.92 235.86C121.957 235.953 119.994 236 118.016 236C117.797 236 117.595 236 117.392 235.984C94.5683 235.875 73.2865 229.301 55.2921 217.959C22.0763 197.098 0 160.127 0 118C0 52.8305 52.8305 0 118.016 0C166.281 0 207.785 28.9781 226.06 70.5133C232.448 85.0335 236 101.112 236 118Z" fill="#F95C5B"/>
<g clipPath="url(#clip0_1457_1357)">
<path d="M236 117.159C236 152.668 219.72 184.494 194 206V76.127C194 72.7386 196.822 70 200.298 70H225.811C232.364 84.42 236 100.387 236 117.159Z" fill="#B11E67"/>
<path d="M256 76.1539V249.862C256 253.249 253.246 256 249.839 256H200.146C196.754 256 194 253.249 194 249.862V206.598C219.096 184.997 234.981 153.031 234.981 117.366C234.981 100.521 231.433 84.4834 225.039 70H249.839C253.246 70 256 72.7506 256 76.1539Z" fill="#795CF5"/>
</g>
<g clipPath="url(#clip1_1457_1357)">
<path d="M185 138.155V213.645C167.315 226.125 146.021 233.881 123 235V138.155C123 134.767 125.769 132 129.16 132H178.84C182.247 132 185 134.767 185 138.155Z" fill="#137F6A"/>
<path d="M185 214V249.91C185 253.271 182.247 256 178.856 256H129.16C125.769 256 123 253.271 123 249.91V235.185C146.021 234.075 167.315 226.381 185 214Z" fill="#1AD1B9"/>
</g>
<g clipPath="url(#clip2_1457_1357)">
<path d="M114 200.15V235C92.3949 234.348 72.2519 227.887 55.1109 217.094C54.0687 216.441 53.0266 215.758 52 215.075V200.15C52 196.764 54.7531 194 58.1596 194H107.84C111.247 194 114 196.764 114 200.15Z" fill="#FF7C3B"/>
<path d="M114 235.009V249.84C114 253.24 111.247 256 107.84 256H58.1596C54.7531 256 52 253.24 52 249.84V215C53.0266 215.686 54.0687 216.372 55.1109 217.027C72.2519 227.866 92.3949 234.354 114 235.009Z" fill="#FFCB00"/>
</g>
<defs>
<clipPath id="clip0_1457_1357">
<rect width="62" height="186" fill="white" transform="translate(194 70)"/>
</clipPath>
<clipPath id="clip1_1457_1357">
<rect width="62" height="124" fill="white" transform="translate(123 132)"/>
</clipPath>
<clipPath id="clip2_1457_1357">
<rect width="62" height="62" fill="white" transform="translate(52 194)"/>
</clipPath>
</defs>
</svg>
