<svg width="23" height="24" viewBox="0 0 23 24" fill="none" xmlns="http://www.w3.org/2000/svg">
<path d="M2.15625 20.625H20.8438M3.59375 3.375V20.625M13.6562 3.375V20.625M19.4062 7.6875V20.625M6.46875 6.96875H7.1875M6.46875 9.84375H7.1875M6.46875 12.7188H7.1875M10.0625 6.96875H10.7812M10.0625 9.84375H10.7812M10.0625 12.7188H10.7812M6.46875 20.625V17.3906C6.46875 16.7955 6.95175 16.3125 7.54688 16.3125H9.70312C10.2983 16.3125 10.7812 16.7955 10.7812 17.3906V20.625M2.875 3.375H14.375M13.6562 7.6875H20.125M16.5312 11.2812L16.5389 11.2889M16.5312 14.1562L16.5389 14.1639M16.5312 17.0312L16.5389 17.0389" stroke="#ffffff" stroke-width="1.5" stroke-linecap="round" stroke-linejoin="round"/>
</svg>
