<svg width="272" height="270" viewBox="0 0 272 270" fill="none" xmlns="http://www.w3.org/2000/svg">
<path d="M236 118.018C236 116.107 235.963 114.159 235.853 112.285C235.191 98.024 231.994 84.4616 226.701 72.0019C225.599 69.3923 224.386 66.8195 223.099 64.3202C210.713 40.099 190.204 20.7295 165.138 9.81342C150.693 3.49165 134.778 0 118.018 0C52.8528 0 0 52.8528 0 118.018C0 183.184 52.8528 236 118.018 236C183.184 236 236 183.184 236 118.018Z" fill="#F95C5B"/>
<path d="M226.697 164.086H216.217L223.093 171.738C210.701 195.864 190.146 215.158 165.068 226.031H108L163.745 164.086H108L189.999 73L235.852 123.962C235.191 138.166 231.992 151.676 226.697 164.086Z" fill="#137F6A"/>
<path d="M271.999 164.086H226.697C231.992 151.675 235.191 138.13 235.853 123.961L271.999 164.086Z" fill="#1AD1B9"/>
<path d="M271.999 226.031H165.106C190.184 215.158 210.702 195.864 223.131 171.738L271.999 226.031Z" fill="#1AD1B9"/>
<path d="M200.442 226.031H179.556V270H200.442V226.031Z" fill="#1AD1B9"/>
</svg>
