<svg width="1245" height="358" viewBox="0 0 1245 358" fill="none" xmlns="http://www.w3.org/2000/svg">
<g clip-path="url(#clip0_1462_1389)">
<path d="M166.925 46.0005C166.925 47.0757 166.925 48.1509 166.925 49.1794C166.925 49.9741 166.925 50.7688 166.925 51.5636C166.877 50.6286 166.83 49.7404 166.83 48.8054C166.83 47.8704 166.83 46.9355 166.925 46.0005Z" fill="#795CF5"/>
<path d="M630.628 178.299C622.124 178.299 614.231 176.616 606.949 173.25C599.667 169.884 593.795 164.789 589.378 157.916C584.962 151.044 582.754 142.443 582.754 132.065V71.1513C582.754 60.9134 591.117 52.5921 601.405 52.5921C611.694 52.5921 620.057 60.9134 620.057 71.1513V136.88C620.057 138.796 620.527 140.526 621.513 142.162C622.453 143.752 623.768 145.014 625.366 145.996C626.963 146.931 628.749 147.445 630.675 147.445C632.601 147.445 634.339 146.977 635.984 145.996C637.581 145.061 638.849 143.752 639.836 142.162C640.776 140.573 641.292 138.796 641.292 136.88V95.928C641.292 86.0173 643.36 77.6493 647.541 70.7773C651.722 63.9053 657.454 58.6694 664.736 55.1166C672.018 51.5169 680.24 49.7405 689.401 49.7405C698.562 49.7405 706.737 51.5169 713.925 55.1166C721.16 58.7162 726.845 63.952 731.026 70.7773C735.208 77.6493 737.275 86.0173 737.275 95.928V136.88C737.275 138.796 737.745 140.526 738.731 142.162C739.671 143.752 741.033 145.014 742.678 145.996C744.369 146.931 746.154 147.445 748.081 147.445C750.007 147.445 751.745 146.977 753.389 145.996C754.987 145.061 756.255 143.752 757.242 142.162C758.181 140.573 758.698 138.796 758.698 136.88V122.995H796.001V132.065C796.001 142.443 793.793 151.044 789.377 157.916C784.961 164.789 779.088 169.884 771.806 173.25C764.524 176.616 756.584 178.299 748.081 178.299C739.577 178.299 731.684 176.616 724.402 173.25C717.12 169.884 711.2 164.789 706.737 157.916C702.227 151.044 700.019 142.443 700.019 132.065V91.3466C700.019 89.2897 699.549 87.4198 698.562 85.8303C697.623 84.2409 696.307 82.9787 694.71 81.9969C693.113 81.0152 691.327 80.5477 689.401 80.5477C687.475 80.5477 685.69 81.0152 683.998 81.9969C682.307 82.9319 680.992 84.2409 680.005 85.8303C679.065 87.4198 678.548 89.243 678.548 91.3466V132.065C678.548 142.443 676.34 151.044 671.924 157.916C667.508 164.789 661.635 169.884 654.353 173.25C647.024 176.616 639.131 178.299 630.628 178.299Z" fill="#231F20"/>
<path d="M758.557 109.391V105.278C758.557 95.0864 761.047 85.7835 766.027 77.509C771.007 69.1878 778.102 62.5962 787.31 57.6409C796.518 52.6856 807.465 50.2079 820.15 50.2079C832.975 50.2079 843.922 52.6856 852.989 57.6409C862.057 62.5962 869.01 69.2345 873.802 77.509C878.594 85.8302 881.037 95.0864 881.037 105.278V157.355C881.037 167.593 872.675 175.915 862.386 175.915C852.097 175.915 843.734 167.593 843.734 157.355V106.259C843.734 101.958 842.701 97.9849 840.586 94.432C838.519 90.8323 835.653 87.9807 832.036 85.8302C828.418 83.6798 824.378 82.6046 819.868 82.6046C815.217 82.6046 811.082 83.6798 807.465 85.8302C803.847 87.9807 801.028 90.8791 798.914 94.432C796.847 98.0316 795.766 101.958 795.766 106.259V109.438H758.557V109.391Z" fill="#231F20"/>
<path d="M971.852 175.4C957.898 175.4 945.636 172.783 935.019 167.64C924.448 162.451 916.226 155.252 910.353 146.089C904.481 136.926 901.568 126.268 901.568 114.113C901.568 100.696 904.387 89.1962 909.978 79.6595C915.568 70.0761 923.085 62.6898 932.481 57.5007C941.878 52.3116 952.261 49.7405 963.63 49.7405C976.644 49.7405 987.496 52.4519 996.235 57.8747C1004.97 63.2975 1011.6 70.6838 1016.06 80.0335C1020.52 89.3832 1022.78 100.042 1022.78 112.009C1022.78 114.066 1022.64 116.497 1022.4 119.302C1022.36 119.723 1022.36 120.097 1022.31 120.471C1022.03 123.556 1019.4 125.894 1016.3 125.894H944.603C942.582 125.894 941.173 127.904 941.925 129.774C942.958 132.298 944.415 134.495 946.247 136.459C948.972 139.311 952.402 141.461 956.583 142.817C960.764 144.172 965.415 144.827 970.536 144.827H1002.25C1005.58 144.827 1008.31 147.538 1008.31 150.857V169.463C1008.31 172.783 1005.58 175.494 1002.25 175.494H971.852V175.4ZM941.126 102.613H985.57C986.228 102.613 986.698 102.052 986.604 101.398C986.275 99.2471 985.852 97.1902 985.335 95.18C984.678 92.7958 983.691 90.6922 982.328 88.8222C980.966 86.9523 979.416 85.4096 977.63 84.0539C975.845 82.6982 973.825 81.623 971.476 80.8282C969.127 80.0335 966.543 79.6128 963.677 79.6128C959.965 79.6128 956.677 80.2672 953.811 81.5295C950.945 82.7917 948.502 84.5214 946.576 86.6718C944.65 88.8222 943.146 91.2999 942.113 94.1048C941.22 96.489 940.515 98.9199 940.045 101.351C939.951 102.005 940.468 102.613 941.126 102.613Z" fill="#231F20"/>
<path d="M1058.72 175.4C1050.36 175.4 1043.54 168.669 1043.54 160.301V88.7287C1043.54 77.5558 1046.74 68.767 1053.18 62.4092C1059.61 56.0515 1068.49 52.8258 1079.86 52.8258H1100.53C1108.9 52.8258 1115.71 59.5576 1115.71 67.9256C1115.71 76.2468 1108.94 83.0253 1100.53 83.0253H1088.98C1086.72 83.0253 1084.79 83.7733 1083.2 85.316C1081.6 86.812 1080.8 88.7754 1080.8 91.1596V160.347C1080.8 168.669 1074.04 175.447 1065.63 175.447H1058.72V175.4Z" fill="#231F20"/>
<path d="M1140.09 160.675C1140.09 152.54 1146.72 145.949 1154.89 145.949H1199.52C1201.12 145.949 1202.58 145.575 1203.84 144.874C1205.11 144.172 1206.15 143.144 1206.99 141.882C1207.79 140.619 1208.21 139.264 1208.21 137.815C1208.21 136.225 1207.79 134.776 1206.99 133.514C1206.19 132.251 1205.16 131.223 1203.84 130.522C1202.58 129.821 1201.12 129.447 1199.52 129.447H1177.86C1169.83 129.447 1162.6 128.138 1156.11 125.473C1149.63 122.855 1144.46 118.694 1140.7 113.038C1136.94 107.381 1135.06 99.995 1135.06 90.8791C1135.06 83.8668 1136.8 77.4622 1140.23 71.7122C1143.66 65.9621 1148.41 61.334 1154.42 57.8279C1160.43 54.3217 1167.06 52.5453 1174.25 52.5453H1218.88C1227.05 52.5453 1233.68 59.1368 1233.68 67.2711V67.5048C1233.68 75.639 1227.05 82.2306 1218.88 82.2306H1180.03C1177.77 82.2306 1175.89 82.9318 1174.39 84.381C1172.84 85.8302 1172.09 87.5599 1172.09 89.6636C1172.09 91.9075 1172.84 93.7775 1174.39 95.2734C1175.89 96.7694 1177.82 97.5641 1180.03 97.5641H1201.21C1210.19 97.5641 1217.94 98.873 1224.42 101.491C1230.91 104.109 1235.98 108.316 1239.6 114.066C1243.21 119.816 1245 127.249 1245 136.319C1245 143.518 1243.21 150.063 1239.6 155.953C1235.98 161.843 1231.19 166.565 1225.17 170.071C1219.16 173.577 1212.4 175.354 1204.83 175.354H1154.89C1146.72 175.4 1140.09 168.809 1140.09 160.675Z" fill="#231F20"/>
<path d="M497.483 176.663C484.422 176.663 472.677 173.764 462.247 168.014C451.818 162.264 443.596 154.364 437.535 144.313C431.475 134.262 428.468 122.995 428.468 110.467C428.468 97.7979 431.475 86.4847 437.535 76.5273C443.549 66.5699 451.818 58.6694 462.247 52.8258C472.677 46.9823 484.422 44.0371 497.483 44.0371C510.544 44.0371 522.242 46.9823 532.578 52.8258C542.914 58.6694 551.089 66.5699 557.149 76.5273C563.163 86.4847 566.217 97.7979 566.217 110.467C566.217 122.995 563.21 134.262 557.149 144.313C551.089 154.364 542.867 162.264 532.437 168.014C522.054 173.764 510.403 176.663 497.483 176.663ZM497.483 143.331C503.591 143.331 508.9 141.835 513.363 138.89C517.826 135.945 521.303 131.971 523.793 127.016C526.283 122.06 527.504 116.497 527.504 110.233C527.504 104.156 526.283 98.6394 523.793 93.684C521.303 88.7287 517.826 84.8018 513.363 81.8099C508.9 78.8647 503.591 77.3688 497.483 77.3688C491.376 77.3688 486.02 78.8647 481.463 81.8099C476.905 84.755 473.382 88.7287 470.892 93.684C468.402 98.6394 467.18 104.156 467.18 110.233C467.18 116.497 468.402 122.06 470.892 127.016C473.382 131.971 476.905 135.898 481.463 138.89C486.067 141.835 491.376 143.331 497.483 143.331Z" fill="#231F20"/>
<path d="M475.261 331.073C470.14 331.073 465.63 330.418 461.731 329.063C457.831 327.754 454.589 325.744 451.912 323.079C449.281 320.414 447.26 317.142 445.898 313.168C444.536 309.241 443.831 304.66 443.831 299.471V258.987C443.831 257.117 444.301 255.714 445.287 254.779C446.274 253.844 447.636 253.377 449.469 253.377C451.254 253.377 452.663 253.844 453.65 254.779C454.636 255.714 455.106 257.117 455.106 258.987V299.284C455.106 306.67 456.798 312.233 460.227 315.88C463.657 319.526 468.637 321.396 475.214 321.396C481.839 321.396 486.866 319.573 490.248 315.88C493.631 312.233 495.322 306.67 495.322 299.284V258.987C495.322 257.117 495.792 255.714 496.779 254.779C497.765 253.844 499.128 253.377 500.819 253.377C502.604 253.377 504.014 253.844 504.953 254.779C505.893 255.714 506.363 257.117 506.363 258.987V299.518C506.363 306.436 505.188 312.233 502.839 316.908C500.49 321.63 497.013 325.136 492.409 327.52C487.852 329.857 482.12 331.073 475.261 331.073Z" fill="#231F20"/>
<path d="M566.968 330.839C565.324 330.839 564.008 330.372 563.069 329.437C562.129 328.502 561.659 327.193 561.659 325.463V258.987C561.659 257.21 562.129 255.808 563.022 254.826C563.914 253.844 565.136 253.377 566.639 253.377C567.955 253.377 568.941 253.611 569.599 254.078C570.304 254.546 571.103 255.387 572.042 256.602L616.674 315.085H613.949V258.659C613.949 257.023 614.419 255.714 615.312 254.779C616.205 253.844 617.473 253.377 619.164 253.377C620.903 253.377 622.218 253.844 623.064 254.779C623.909 255.714 624.379 257.023 624.379 258.659V325.557C624.379 327.193 623.956 328.502 623.111 329.437C622.265 330.372 621.184 330.839 619.822 330.839C618.507 330.839 617.473 330.605 616.627 330.091C615.782 329.577 614.889 328.735 613.996 327.52L569.599 269.131H572.089V325.463C572.089 327.193 571.666 328.502 570.774 329.437C569.881 330.372 568.613 330.839 566.968 330.839Z" fill="#231F20"/>
<path d="M685.643 330.839C683.857 330.839 682.448 330.325 681.461 329.343C680.475 328.315 680.005 326.959 680.005 325.136V259.08C680.005 257.21 680.475 255.808 681.461 254.826C682.448 253.844 683.81 253.377 685.643 253.377C687.475 253.377 688.837 253.844 689.824 254.826C690.811 255.808 691.28 257.21 691.28 259.08V325.136C691.28 326.912 690.811 328.315 689.871 329.343C688.884 330.325 687.475 330.839 685.643 330.839Z" fill="#231F20"/>
<path d="M775.94 330.839C774.343 330.839 773.028 330.465 771.994 329.717C770.96 328.969 770.115 327.847 769.457 326.304L740.329 260.67C739.765 259.174 739.624 257.865 739.906 256.789C740.188 255.714 740.798 254.873 741.691 254.265C742.584 253.657 743.711 253.33 744.98 253.33C746.624 253.33 747.893 253.704 748.785 254.405C749.631 255.107 750.383 256.182 750.946 257.631L778.242 320.554H774.249L801.31 257.537C801.968 256.182 802.72 255.153 803.659 254.405C804.552 253.704 805.82 253.33 807.371 253.33C808.686 253.33 809.72 253.657 810.565 254.265C811.411 254.873 811.928 255.714 812.116 256.789C812.351 257.865 812.116 259.174 811.458 260.67L782.424 326.304C781.766 327.8 780.92 328.922 779.934 329.717C778.9 330.465 777.585 330.839 775.94 330.839Z" fill="#231F20"/>
<path d="M866.661 330.091C864.735 330.091 863.231 329.577 862.151 328.548C861.117 327.52 860.6 326.024 860.6 324.061V260.155C860.6 258.239 861.117 256.743 862.151 255.667C863.184 254.592 864.688 254.125 866.661 254.125H906.172C907.675 254.125 908.85 254.499 909.649 255.247C910.447 255.995 910.823 257.117 910.823 258.519C910.823 260.015 910.447 261.184 909.649 261.979C908.85 262.773 907.675 263.147 906.172 263.147H871.406V286.942H903.776C905.373 286.942 906.548 287.316 907.3 288.111C908.051 288.906 908.427 290.028 908.427 291.43C908.427 292.926 908.051 294.048 907.3 294.843C906.548 295.591 905.373 295.965 903.776 295.965H871.406V320.975H906.172C907.675 320.975 908.85 321.349 909.649 322.144C910.447 322.939 910.823 324.061 910.823 325.463C910.823 326.959 910.447 328.081 909.649 328.876C908.85 329.624 907.675 329.998 906.172 329.998H866.661V330.091Z" fill="#231F20"/>
<path d="M967.905 330.839C966.12 330.839 964.711 330.325 963.724 329.343C962.737 328.315 962.268 326.959 962.268 325.136V259.828C962.268 257.958 962.784 256.556 963.771 255.574C964.758 254.592 966.167 254.125 967.999 254.125H993.886C1002.11 254.125 1008.45 256.041 1012.96 259.922C1017.42 263.802 1019.68 269.318 1019.68 276.424C1019.68 281.005 1018.64 284.979 1016.62 288.298C1014.6 291.617 1011.64 294.095 1007.79 295.824C1003.94 297.554 999.289 298.396 993.886 298.396L994.872 296.9H997.691C1000.56 296.9 1003.09 297.601 1005.21 299.05C1007.32 300.499 1009.25 302.79 1010.99 305.969L1020.29 323.219C1020.99 324.528 1021.37 325.743 1021.32 326.912C1021.28 328.081 1020.85 329.063 1020.01 329.764C1019.16 330.465 1017.99 330.839 1016.48 330.839C1014.89 330.839 1013.62 330.512 1012.63 329.811C1011.64 329.109 1010.75 328.128 1010 326.725L998.631 305.829C997.128 303.024 995.389 301.154 993.416 300.172C991.443 299.19 988.906 298.723 985.711 298.723H973.496V325.136C973.496 326.912 973.026 328.315 972.087 329.343C971.194 330.325 969.785 330.839 967.905 330.839ZM973.543 290.308H992.054C997.55 290.308 1001.68 289.139 1004.5 286.849C1007.32 284.558 1008.73 281.145 1008.73 276.611C1008.73 272.17 1007.32 268.804 1004.5 266.466C1001.68 264.176 997.55 263.007 992.054 263.007H973.543V290.308Z" fill="#231F20"/>
<path d="M1098.79 331.073C1095.46 331.073 1092.22 330.839 1089.07 330.325C1085.87 329.811 1082.92 329.063 1080.1 327.987C1077.28 326.959 1074.74 325.65 1072.53 324.154C1071.45 323.359 1070.7 322.471 1070.32 321.443C1069.95 320.461 1069.81 319.432 1070 318.497C1070.18 317.516 1070.61 316.674 1071.22 315.973C1071.87 315.272 1072.67 314.804 1073.61 314.617C1074.55 314.43 1075.59 314.758 1076.76 315.552C1080 317.656 1083.43 319.152 1087.05 320.134C1090.67 321.115 1094.61 321.583 1098.84 321.583C1105 321.583 1109.51 320.508 1112.42 318.31C1115.33 316.113 1116.79 313.262 1116.79 309.756C1116.79 306.904 1115.75 304.613 1113.64 302.93C1111.53 301.247 1108.05 299.892 1103.12 298.91L1091.51 296.526C1084.65 295.076 1079.53 292.739 1076.2 289.42C1072.86 286.101 1071.17 281.66 1071.17 276.05C1071.17 272.684 1071.87 269.599 1073.28 266.794C1074.69 263.989 1076.67 261.558 1079.2 259.501C1081.74 257.444 1084.75 255.901 1088.32 254.826C1091.84 253.751 1095.69 253.19 1099.92 253.19C1104.39 253.19 1108.61 253.751 1112.51 254.92C1116.46 256.088 1119.98 257.818 1123.08 260.202C1124.02 260.857 1124.63 261.651 1124.96 262.633C1125.29 263.615 1125.34 264.55 1125.2 265.485C1125.01 266.42 1124.59 267.214 1123.98 267.869C1123.32 268.523 1122.47 268.897 1121.49 268.991C1120.45 269.084 1119.37 268.757 1118.15 267.962C1115.33 266.092 1112.47 264.737 1109.55 263.942C1106.64 263.1 1103.4 262.727 1099.88 262.727C1096.35 262.727 1093.25 263.287 1090.62 264.363C1087.99 265.438 1085.97 266.934 1084.56 268.897C1083.15 270.814 1082.45 273.151 1082.45 275.816C1082.45 278.855 1083.43 281.239 1085.36 283.015C1087.28 284.792 1090.57 286.194 1095.08 287.129L1106.55 289.513C1113.78 291.009 1119.14 293.347 1122.66 296.526C1126.18 299.705 1127.97 303.912 1127.97 309.148C1127.97 312.514 1127.27 315.552 1125.9 318.264C1124.54 320.975 1122.57 323.266 1120.08 325.229C1117.54 327.146 1114.49 328.642 1110.92 329.717C1107.3 330.512 1103.26 331.073 1098.79 331.073Z" fill="#231F20"/>
<path d="M1184.68 330.091C1182.75 330.091 1181.25 329.577 1180.17 328.548C1179.13 327.52 1178.62 326.024 1178.62 324.061V260.155C1178.62 258.239 1179.13 256.743 1180.17 255.667C1181.2 254.639 1182.7 254.125 1184.68 254.125H1224.19C1225.69 254.125 1226.87 254.499 1227.66 255.247C1228.46 255.995 1228.84 257.117 1228.84 258.519C1228.84 260.015 1228.46 261.184 1227.66 261.979C1226.87 262.773 1225.74 263.147 1224.19 263.147H1189.42V286.942H1221.79C1223.39 286.942 1224.56 287.316 1225.31 288.111C1226.07 288.906 1226.44 290.028 1226.44 291.43C1226.44 292.926 1226.07 294.048 1225.31 294.843C1224.56 295.591 1223.39 295.965 1221.79 295.965H1189.42V320.975H1224.19C1225.69 320.975 1226.87 321.349 1227.66 322.144C1228.46 322.939 1228.84 324.061 1228.84 325.463C1228.84 326.959 1228.46 328.081 1227.66 328.876C1226.87 329.624 1225.74 329.998 1224.19 329.998H1184.68V330.091Z" fill="#231F20"/>
<path d="M359.782 176.663C359.359 168.154 355.882 159.833 349.352 153.335C338.875 142.91 323.7 139.965 310.545 144.5C309.982 144.733 309.371 144.92 308.807 145.154C308.243 145.388 307.679 145.622 307.069 145.902C305.988 146.416 304.908 146.977 303.874 147.632C303.827 147.632 303.827 147.632 303.827 147.632C302.277 148.567 300.726 149.642 299.27 150.811C298.283 151.652 297.391 152.447 296.451 153.382L271.692 178.018V177.972L224.57 128.184C200.515 102.753 159.877 102.753 135.775 128.184L88.5125 178.205H88.4655L63.5185 153.382H63.4715C48.8604 138.843 25.1819 138.843 10.5708 153.382L10.4298 153.569C9.91302 154.083 9.39623 154.597 8.9734 155.112C8.50359 155.626 8.03377 156.187 7.61094 156.748C5.87264 158.945 4.41623 161.282 3.28868 163.76C2.95981 164.368 2.72491 164.975 2.44302 165.63C2.20811 166.238 1.97321 166.892 1.78528 167.5C1.55038 168.248 1.31547 169.043 1.12755 169.837C0.751698 171.38 0.42283 172.969 0.234906 174.559C0.0939623 175.307 0.0469811 176.102 0 176.896C1.17453 79.005 81.2304 0 179.891 0C278.504 0 358.513 78.9115 359.782 176.663Z" fill="#795CF5"/>
<path d="M359.782 180.356C359.077 278.621 278.833 358 179.938 358C81.0894 358 0.84566 278.668 0 180.543C0.0469811 181.618 0.140943 182.693 0.328868 183.722C0.375849 184.189 0.469811 184.657 0.563774 185.124C0.751698 186.246 1.03358 187.368 1.31547 188.396C1.64434 189.425 1.97321 190.453 2.34906 191.482C2.91283 193.025 3.61755 194.474 4.41623 195.923C4.98 196.905 5.54377 197.84 6.15453 198.775C6.81226 199.71 7.47 200.551 8.17472 201.439C8.92642 202.281 9.67811 203.169 10.5238 203.917C25.1349 218.456 48.7664 218.456 63.3775 203.917H63.4245L88.3245 179.14L135.541 229.114C159.595 254.546 200.234 254.546 224.288 229.114L271.457 179.187L296.31 203.917C310.921 218.456 334.6 218.456 349.211 203.917L349.399 203.73C353.063 200.084 355.788 195.829 357.526 191.295C357.714 190.827 357.902 190.266 358.09 189.752C358.607 188.209 359.03 186.667 359.265 185.077C359.5 183.535 359.688 181.898 359.782 180.356Z" fill="#F95C5B"/>
<path d="M88.8464 178.533L88.2324 179.14L87.9017 178.813L88.5158 178.205L88.8464 178.533Z" fill="#F95C5B"/>
<path d="M272.074 178.486L271.413 179.187L270.94 178.72L271.649 178.065L271.696 178.018L272.074 178.486Z" fill="#F95C5B"/>
<path d="M88.8464 178.533L88.2324 179.14L87.9017 178.813L88.5158 178.205L88.8464 178.533Z" fill="#795CF5"/>
<path d="M272.074 178.486L271.413 179.187L270.94 178.72L271.649 178.065L271.696 178.018L272.074 178.486Z" fill="#795CF5"/>
<path d="M359.782 176.663V180.309C359.688 181.898 359.5 183.488 359.218 185.077C358.889 186.667 358.513 188.21 358.043 189.752C357.855 190.266 357.667 190.781 357.479 191.295C355.741 195.83 353.016 200.084 349.352 203.73L349.164 203.917C334.553 218.456 310.874 218.456 296.263 203.917L271.41 179.187L272.068 178.486L271.645 178.065L271.692 178.018V177.972L296.451 153.335H296.498C297.438 152.4 298.33 151.605 299.317 150.764H299.364C300.82 149.549 302.324 148.52 303.921 147.585C303.921 147.585 303.921 147.585 303.968 147.585C305.049 146.977 306.129 146.416 307.163 145.855C307.726 145.622 308.29 145.388 308.901 145.107C309.465 144.874 310.029 144.687 310.639 144.453C323.794 139.918 338.969 142.863 349.446 153.288C355.835 159.833 359.312 168.154 359.782 176.663Z" fill="#B11E67"/>
<path d="M272.074 178.486L271.413 179.187L270.94 178.72L271.649 178.065L271.696 178.018L272.074 178.486Z" fill="#795CF5"/>
<path d="M359.781 180.356C359.781 179.888 359.781 179.468 359.781 179C359.781 178.252 359.781 177.457 359.781 176.709C359.829 177.925 359.829 179.14 359.781 180.356Z" fill="#795CF5"/>
<path d="M87.9017 178.813L88.2306 179.14L63.3306 203.917C48.7194 218.456 25.0409 218.456 10.4298 203.917C3.89943 197.419 0.42283 189.051 0 180.543C0 180.029 0 179.514 0 179C0 178.299 0 177.598 0 176.896C0.42283 168.388 3.89943 160.02 10.4298 153.522L10.6177 153.335C25.2289 138.796 48.9074 138.796 63.5185 153.335L88.4655 178.159L87.9017 178.813Z" fill="#B11E67"/>
<path d="M88.8464 178.533L88.2324 179.14L87.9017 178.813L88.5158 178.205L88.8464 178.533Z" fill="#795CF5"/>
</g>
<defs>
<clipPath id="clip0_1462_1389">
<rect width="1245" height="358" fill="white"/>
</clipPath>
</defs>
</svg>
