<svg width="280" height="256" viewBox="0 0 280 256" fill="none" xmlns="http://www.w3.org/2000/svg">
<path d="M236 118C236 128 234.746 137.695 232.374 146.983C222.072 188.034 190.217 220.509 149.584 231.797C145.111 233.017 140.536 234 135.893 234.712C131.725 235.356 127.455 235.763 123.117 235.932V235.898C121.423 235.966 119.728 236 118.034 236C58.9661 236 9.99714 192.576 1.38944 135.864L1.32165 135.898C0.474438 130.068 0 124.102 0 118C0 95.6271 6.2355 74.6441 17.0798 56.8475C21.9937 48.7119 27.8903 41.2542 34.5325 34.5763C36.5658 32.5763 38.633 30.6441 40.7679 28.7797C42.1913 27.5254 43.7162 26.3051 45.2073 25.1187C46.5968 24.0339 48.0201 22.9831 49.4434 21.9322C50.2906 21.322 51.1717 20.7119 52.0528 20.1017C53.6117 19.0508 55.1706 18.0678 56.7972 17.0848C58.4239 16.1017 60.0505 15.1525 61.745 14.2373C65.0661 12.4407 68.5227 10.7797 72.0471 9.28813C86.1448 3.28813 101.666 0 117.966 0C181.406 0 233.187 50.1017 235.864 112.847C235.932 114.542 236 116.271 236 118Z" fill="#795CF5"/>
<path d="M193.134 244.799H172.62C173.064 239.555 177.501 235.402 182.894 235.402C188.287 235.402 192.69 239.555 193.134 244.799Z" fill="#F95C5B"/>
<path d="M257.234 244.799H236.755C237.199 239.555 241.602 235.402 246.995 235.402C252.387 235.402 256.79 239.555 257.234 244.799Z" fill="#F95C5B"/>
<path d="M193.204 245.718C193.204 251.404 188.596 256 182.896 256C177.196 256 172.554 251.404 172.554 245.718C172.554 245.411 172.554 245.105 172.622 244.799C173.066 239.555 177.503 235.402 182.896 235.402C188.289 235.402 192.692 239.555 193.135 244.799C193.204 245.105 193.204 245.411 193.204 245.718Z" fill="white"/>
<path d="M257.303 245.718C257.303 251.404 252.695 256 246.995 256C241.295 256 236.688 251.404 236.688 245.718C236.688 245.411 236.687 245.105 236.756 244.799C237.199 239.555 241.602 235.402 246.995 235.402C252.388 235.402 256.791 239.555 257.235 244.799C257.303 245.105 257.303 245.411 257.303 245.718Z" fill="white"/>
<path d="M257.303 245.718C257.303 251.404 252.695 256 246.995 256C241.295 256 236.688 251.404 236.688 245.718C236.688 245.411 236.687 245.105 236.756 244.799C237.199 239.555 241.602 235.402 246.995 235.402C252.388 235.402 256.791 239.555 257.235 244.799C257.303 245.105 257.303 245.411 257.303 245.718Z" fill="#F95C5B"/>
<path d="M193.204 245.718C193.204 251.404 188.596 256 182.896 256C177.196 256 172.554 251.404 172.554 245.718C172.554 245.411 172.554 245.105 172.622 244.799C173.066 239.555 177.503 235.402 182.896 235.402C188.289 235.402 192.692 239.555 193.135 244.799C193.204 245.105 193.204 245.411 193.204 245.718Z" fill="#F95C5B"/>
<path d="M231.841 146.028C221.431 187.259 189.346 219.876 148.422 231.214L133.404 163.494L126.543 138.981H79.5091C75.345 138.981 72 135.644 72 131.49C72 129.413 72.8192 127.541 74.1845 126.179C75.5497 124.783 77.427 124 79.5091 124H124.7C129.547 124 133.984 126.077 137.056 129.448C138.728 131.32 140.06 133.601 140.742 136.121L143.575 146.062H231.841V146.028Z" fill="#B11E67"/>
<path d="M280 151.714L279.01 239.249C278.976 242.313 276.279 244.798 272.968 244.798H262.49C261.944 244.798 261.534 244.39 261.466 243.845C260.578 236.661 254.435 231.112 246.994 231.112C239.519 231.112 233.375 236.661 232.488 243.845C232.419 244.39 232.01 244.798 231.464 244.798H198.424C197.877 244.798 197.468 244.39 197.4 243.845C196.478 236.661 190.368 231.112 182.893 231.112C175.419 231.112 169.309 236.661 168.387 243.845C168.319 244.39 167.875 244.798 167.363 244.798H156.339C153.472 244.798 151.014 242.926 150.434 240.304L149.751 237.104L148.454 231.18C189.379 219.876 221.463 187.225 231.873 145.994H274.026C277.337 146.028 280.034 148.616 280 151.714Z" fill="#F95C5B"/>
</svg>
