<svg width="328" height="266" viewBox="0 0 328 266" fill="none" xmlns="http://www.w3.org/2000/svg">
<g clip-path="url(#clip0_287_265)">
<path d="M240.19 120.11C240.19 131.58 238.58 142.69 235.57 153.21C234 158.67 232.07 163.97 229.78 169.07C223.2 183.81 213.72 196.99 202.08 207.86C188.55 220.5 172.11 230.06 153.86 235.39C143.15 238.52 131.81 240.2 120.09 240.2C115.23 240.2 110.44 239.9 105.73 239.34C46.17 232.25 0 181.57 0 120.11C0 53.77 53.77 0 120.09 0C169.59 0 212.09 29.94 230.47 72.71C236.73 87.25 240.19 103.27 240.19 120.11Z" fill="#795CF5"/>
<path d="M202.08 169.07V207.86C188.55 220.5 172.11 230.05 153.85 235.39C143.15 238.52 131.8 240.2 120.08 240.2C115.22 240.2 110.43 239.91 105.72 239.34V169.07H202.08Z" fill="#137F6A"/>
<path d="M202.08 207.86V265.42H105.72V239.34C110.43 239.9 115.23 240.2 120.08 240.2C131.8 240.2 143.14 238.52 153.85 235.39C172.11 230.06 188.55 220.5 202.08 207.86Z" fill="#1AD1B9"/>
<path d="M328 169.07H231.65V265.42H328V169.07Z" fill="#FFCB00"/>
<path d="M240.19 120.11C240.19 131.59 238.58 142.69 235.57 153.22C234 158.68 232.07 163.97 229.78 169.08H168.7V72.71H230.47C236.73 87.25 240.19 103.27 240.19 120.11Z" fill="#B11E67"/>
<path d="M265.04 72.71V169.07H229.78C232.07 163.97 234 158.67 235.57 153.21C238.58 142.69 240.19 131.58 240.19 120.1C240.19 103.27 236.73 87.24 230.46 72.7H265.04V72.71Z" fill="#F95C5B"/>
</g>
<defs>
<clipPath id="clip0_287_265">
<rect width="328" height="265.42" fill="white"/>
</clipPath>
</defs>
</svg>
