<svg width="20" height="20" viewBox="0 0 20 20" fill="none" xmlns="http://www.w3.org/2000/svg">
<g clip-path="url(#clip0_2928_483)">
<path fill-rule="evenodd" clip-rule="evenodd" d="M13.3334 7.49935C13.3334 9.34027 11.841 10.8327 10.0001 10.8327C8.15913 10.8327 6.66675 9.34027 6.66675 7.49935C6.66675 5.6584 8.15913 4.16602 10.0001 4.16602C11.841 4.16602 13.3334 5.6584 13.3334 7.49935ZM11.6667 7.49935C11.6667 8.41985 10.9206 9.16602 10.0001 9.16602C9.07958 9.16602 8.33341 8.41985 8.33341 7.49935C8.33341 6.57887 9.07958 5.83268 10.0001 5.83268C10.9206 5.83268 11.6667 6.57887 11.6667 7.49935Z" fill="#4B5563"/>
<path fill-rule="evenodd" clip-rule="evenodd" d="M9.99992 0.833984C4.93731 0.833984 0.833252 4.93804 0.833252 10.0007C0.833252 15.0632 4.93731 19.1673 9.99992 19.1673C15.0625 19.1673 19.1666 15.0632 19.1666 10.0007C19.1666 4.93804 15.0625 0.833984 9.99992 0.833984ZM2.49992 10.0007C2.49992 11.7425 3.09371 13.3456 4.0899 14.6187C5.46029 12.8247 7.62181 11.6673 10.0537 11.6673C12.4539 11.6673 14.5909 12.7949 15.9637 14.5492C16.9274 13.2876 17.4999 11.711 17.4999 10.0007C17.4999 5.85852 14.1421 2.50065 9.99992 2.50065C5.85778 2.50065 2.49992 5.85852 2.49992 10.0007ZM9.99992 17.5006C8.20806 17.5006 6.56296 16.8722 5.27298 15.8238C6.32785 14.3183 8.0758 13.334 10.0537 13.334C12.0069 13.334 13.736 14.2941 14.7948 15.7681C13.4948 16.8499 11.8233 17.5006 9.99992 17.5006Z" fill="#4B5563"/>
</g>
<defs>
<clipPath id="clip0_2928_483">
<rect width="20" height="20" fill="white"/>
</clipPath>
</defs>
</svg>
