<svg width="24" height="25" viewBox="0 0 24 25" fill="none" xmlns="http://www.w3.org/2000/svg">
<g clip-path="url(#clip0_31435_3383)">
<path d="M5 5.46094H7V8.46094H17V5.46094H19V10.4609H21V5.46094C21 4.36094 20.1 3.46094 19 3.46094H14.82C14.4 2.30094 13.3 1.46094 12 1.46094C10.7 1.46094 9.6 2.30094 9.18 3.46094H5C3.9 3.46094 3 4.36094 3 5.46094V19.4609C3 20.5609 3.9 21.4609 5 21.4609H11V19.4609H5V5.46094ZM12 3.46094C12.55 3.46094 13 3.91094 13 4.46094C13 5.01094 12.55 5.46094 12 5.46094C11.45 5.46094 11 5.01094 11 4.46094C11 3.91094 11.45 3.46094 12 3.46094Z" fill="#795CF5"/>
<path d="M21 11.9609L15.51 17.4609L12.5 14.4609L11 15.9609L15.51 20.4609L22.5 13.4609L21 11.9609Z" fill="#795CF5"/>
</g>
<defs>
<clipPath id="clip0_31435_3383">
<rect width="24" height="24" fill="white" transform="translate(0 0.460938)"/>
</clipPath>
</defs>
</svg>
