<svg width="24" height="25" viewBox="0 0 24 25" fill="none" xmlns="http://www.w3.org/2000/svg">
<g clipPath="url(#clip0_31435_3319)">
<path d="M15.55 13.4609C16.3 13.4609 16.96 13.0509 17.3 12.4309L20.88 5.94094C21.0645 5.6091 21.0606 5.27952 20.8681 4.9522C20.6757 4.62488 20.3897 4.46113 20.01 4.46094H5.21L4.27 2.46094H1V4.46094H3L6.6 12.0509L5.25 14.4909C4.52 15.8309 5.48 17.4609 7 17.4609H19V15.4609H7L8.1 13.4609H15.55ZM6.16 6.46094H18.31L15.55 11.4609H8.53L6.16 6.46094ZM7 18.4609C5.9 18.4609 5.01 19.3609 5.01 20.4609C5.01 21.5609 5.9 22.4609 7 22.4609C8.1 22.4609 9 21.5609 9 20.4609C9 19.3609 8.1 18.4609 7 18.4609ZM17 18.4609C15.9 18.4609 15.01 19.3609 15.01 20.4609C15.01 21.5609 15.9 22.4609 17 22.4609C18.1 22.4609 19 21.5609 19 20.4609C19 19.3609 18.1 18.4609 17 18.4609Z" fill="#795CF5"/>
</g>
<defs>
<clipPath id="clip0_31435_3319">
<rect width="24" height="24" fill="white" transform="translate(0 0.460938)"/>
</clipPath>
</defs>
</svg>
