<svg width="96" height="96" viewBox="0 0 96 96" fill="none" xmlns="http://www.w3.org/2000/svg">
<path d="M89.8257 20.88C89.7821 20.1904 89.5303 19.5878 89.0703 19.0722C88.6103 18.5566 88.0403 18.238 87.3601 18.1163C71.1413 15.2063 64.3707 13.1025 49.2357 6.26628C48.843 6.08876 48.4311 6 48.0001 6C47.5691 6 47.1572 6.08876 46.7645 6.26628C31.6295 13.1025 24.8588 15.2063 8.64008 18.1163C7.95991 18.238 7.38984 18.5566 6.92985 19.0722C6.46987 19.5878 6.21807 20.1904 6.17445 20.88C5.45258 32.3382 6.99195 43.0144 10.7551 52.6125C12.2959 56.527 14.196 60.2586 16.4555 63.8071C18.7151 67.3557 21.2924 70.656 24.1876 73.7081C34.2132 84.345 44.8576 88.965 46.8882 89.7825C47.249 89.9285 47.624 90.0014 48.0132 90.0014C48.4024 90.0014 48.7774 89.9285 49.1382 89.7825C51.1688 88.965 61.8132 84.345 71.8388 73.7081C74.7293 70.6549 77.3021 67.354 79.5571 63.8055C81.8122 60.257 83.7082 56.526 85.2451 52.6125C89.0082 43.0144 90.5476 32.3381 89.8257 20.88ZM65.2632 34.9632L44.4882 58.9632C44.2183 59.2759 43.8974 59.5224 43.5256 59.7025C43.1538 59.8827 42.7616 59.9819 42.3488 60H42.2251C41.8325 60.0001 41.4545 59.926 41.091 59.7777C40.7275 59.6294 40.4055 59.4179 40.1251 59.1431L30.9001 50.1056C30.3083 49.5257 30.0082 48.8215 29.9997 47.993C29.9913 47.1645 30.2771 46.4543 30.857 45.8625C31.4369 45.2707 32.1411 44.9706 32.9696 44.9622C33.7981 44.9538 34.5083 45.2395 35.1001 45.8194L42.0376 52.6238L60.7313 31.0369C61.2736 30.4109 61.9577 30.0681 62.7837 30.0087C63.6098 29.9492 64.336 30.1905 64.9622 30.7324C65.5885 31.2743 65.9316 31.9583 65.9915 32.7843C66.0513 33.6103 65.8104 34.3366 65.2688 34.9631L65.2632 34.9632Z" fill="#795CF5"/>
</svg>
