<svg width="40" height="40" viewBox="0 0 40 40" fill="none" xmlns="http://www.w3.org/2000/svg">
<path d="M20.2946 17.0145C19.4317 16.9293 18.6742 17.1725 18.0221 17.7441C17.3701 18.3158 17.0298 19.0349 17.0014 19.9016C16.9729 20.7683 17.2653 21.5082 17.8784 22.1213C18.4916 22.7345 19.2315 23.0268 20.0982 22.9984C20.9649 22.9699 21.684 22.6297 22.2556 21.9776C22.8273 21.3256 23.0705 20.5681 22.9852 19.7052C22.9138 18.9938 22.6253 18.3854 22.1198 17.8799C21.6143 17.3744 21.0059 17.086 20.2946 17.0145ZM27.5181 20C27.5171 20.163 27.5106 20.3259 27.4987 20.4885C27.4867 20.6511 27.4693 20.8131 27.4463 20.9745L29.5656 22.6367C29.6608 22.7157 29.7193 22.8161 29.741 22.9379C29.7628 23.0598 29.7425 23.1742 29.6804 23.2812L27.6756 26.75C27.6127 26.856 27.5231 26.9293 27.4068 26.9699C27.2905 27.0105 27.1748 27.0089 27.0596 26.9652L24.9549 26.1177C24.8371 26.0707 24.7151 26.0545 24.5891 26.0691C24.463 26.0836 24.3479 26.1271 24.2438 26.1997C24.0832 26.3103 23.9187 26.4146 23.7501 26.5127C23.5816 26.6109 23.4096 26.7024 23.2342 26.7875C23.1221 26.842 23.0295 26.9196 22.9563 27.0203C22.8831 27.1211 22.8379 27.2332 22.8207 27.3566L22.5052 29.6014C22.4839 29.7237 22.4261 29.8252 22.332 29.906C22.2378 29.9869 22.1287 30.0286 22.0046 30.0313H17.9949C17.8731 30.0291 17.7652 29.9892 17.6714 29.9113C17.5776 29.8335 17.5184 29.7349 17.4938 29.6155L17.1788 27.3739C17.1609 27.2492 17.1145 27.136 17.0398 27.0346C16.965 26.9331 16.8708 26.8553 16.757 26.8011C16.5817 26.7165 16.4101 26.625 16.2422 26.5267C16.0743 26.4283 15.9105 26.3234 15.751 26.2119C15.6473 26.1397 15.5326 26.0965 15.407 26.0823C15.2814 26.0681 15.16 26.0845 15.0427 26.1317L12.9385 26.9788C12.8234 27.0226 12.7077 27.0242 12.5914 26.9837C12.4751 26.9432 12.3855 26.8699 12.3226 26.7641L10.3177 23.2953C10.2555 23.1883 10.2352 23.0739 10.257 22.952C10.2787 22.8301 10.3372 22.7297 10.4326 22.6508L12.2237 21.2445C12.3234 21.1654 12.3982 21.0673 12.448 20.9502C12.4979 20.8331 12.5169 20.7112 12.5049 20.5845C12.4881 20.3891 12.4777 20.1941 12.4777 19.9986C12.4777 19.8031 12.4876 19.6109 12.5049 19.4197C12.5156 19.2938 12.4957 19.1729 12.4452 19.057C12.3948 18.9412 12.3198 18.8442 12.2204 18.7663L10.4302 17.36C10.3365 17.2807 10.2791 17.1806 10.2581 17.0596C10.2372 16.9386 10.2575 16.825 10.3192 16.7188L12.324 13.25C12.3868 13.144 12.4764 13.0707 12.5927 13.0301C12.709 12.9895 12.8248 12.9911 12.9399 13.0348L15.0446 13.8823C15.1625 13.9293 15.2845 13.9455 15.4105 13.9309C15.5365 13.9164 15.6516 13.8729 15.7557 13.8003C15.9163 13.6897 16.0809 13.5854 16.2494 13.4873C16.4179 13.3891 16.5899 13.2976 16.7654 13.2125C16.8774 13.158 16.9701 13.0804 17.0433 12.9797C17.1165 12.8789 17.1617 12.7668 17.1788 12.6434L17.4943 10.3986C17.5157 10.2763 17.5734 10.1748 17.6676 10.094C17.7617 10.0131 17.8709 9.97138 17.9949 9.96875H22.0046C22.1265 9.97086 22.2343 10.0108 22.3282 10.0887C22.422 10.1665 22.4812 10.2651 22.5057 10.3845L22.8207 12.6261C22.8387 12.7508 22.885 12.864 22.9598 12.9654C23.0345 13.0669 23.1288 13.1447 23.2426 13.1989C23.4179 13.2835 23.5894 13.375 23.7574 13.4733C23.9253 13.5717 24.089 13.6766 24.2485 13.7881C24.3523 13.8603 24.4669 13.9035 24.5925 13.9177C24.7181 13.9319 24.8395 13.9155 24.9568 13.8683L27.061 13.0213C27.1761 12.9774 27.2918 12.9758 27.4081 13.0163C27.5244 13.0568 27.614 13.1301 27.677 13.2359L29.6818 16.7047C29.744 16.8117 29.7643 16.9261 29.7426 17.048C29.7209 17.1699 29.6623 17.2703 29.567 17.3492L27.7759 18.7555C27.6757 18.8343 27.6005 18.9323 27.5502 19.0494C27.4999 19.1665 27.4806 19.2886 27.4923 19.4155C27.5077 19.6095 27.5181 19.8045 27.5181 20Z" stroke="#4B5563" stroke-width="1.5" stroke-linejoin="round"/>
</svg>
