<svg width="24" height="25" viewBox="0 0 24 25" fill="none" xmlns="http://www.w3.org/2000/svg">
<g clipPath="url(#clip0_31435_3434)">
<path d="M20 8.46094H17V4.46094H3C1.9 4.46094 1 5.36094 1 6.46094V17.4609H3C3 19.1209 4.34 20.4609 6 20.4609C7.66 20.4609 9 19.1209 9 17.4609H15C15 19.1209 16.34 20.4609 18 20.4609C19.66 20.4609 21 19.1209 21 17.4609H23V12.4609L20 8.46094ZM19.5 9.96094L21.46 12.4609H17V9.96094H19.5ZM6 18.4609C5.45 18.4609 5 18.0109 5 17.4609C5 16.9109 5.45 16.4609 6 16.4609C6.55 16.4609 7 16.9109 7 17.4609C7 18.0109 6.55 18.4609 6 18.4609ZM8.22 15.4609C7.67 14.8509 6.89 14.4609 6 14.4609C5.11 14.4609 4.33 14.8509 3.78 15.4609H3V6.46094H15V15.4609H8.22ZM18 18.4609C17.45 18.4609 17 18.0109 17 17.4609C17 16.9109 17.45 16.4609 18 16.4609C18.55 16.4609 19 16.9109 19 17.4609C19 18.0109 18.55 18.4609 18 18.4609Z" fill="#795CF5"/>
</g>
<defs>
<clipPath id="clip0_31435_3434">
<rect width="24" height="24" fill="white" transform="translate(0 0.460938)"/>
</clipPath>
</defs>
</svg>
