<svg width="23" height="24" viewBox="0 0 23 24" fill="none" xmlns="http://www.w3.org/2000/svg">
<g clipPath="url(#clip0_31449_5581)">
<path d="M14 18.4609V19.2109C14 20.0394 13.7071 20.7465 13.1213 21.3323C12.5355 21.918 11.8284 22.2109 11 22.2109C10.1716 22.2109 9.46445 21.918 8.87867 21.3323C8.29288 20.7465 7.99999 20.0394 7.99999 19.2109V18.4609M19.0475 16.9342C17.8437 15.4609 16.9939 14.7109 16.9939 10.6492C16.9939 6.92969 15.0945 5.60453 13.5312 4.96094C13.3236 4.87563 13.1281 4.67969 13.0648 4.46641C12.7906 3.53313 12.0219 2.71094 11 2.71094C9.97811 2.71094 9.20889 3.53359 8.93749 4.46734C8.87421 4.68297 8.67874 4.87563 8.47108 4.96094C6.90593 5.60547 5.00842 6.92594 5.00842 10.6492C5.00608 14.7109 4.15624 15.4609 2.95249 16.9342C2.45374 17.5445 2.89061 18.4609 3.76296 18.4609H18.2417C19.1094 18.4609 19.5434 17.5417 19.0475 16.9342Z" stroke="#795CF5" strokeWidth="1.5" strokeLinecap="round" strokeLinejoin="round"/>
</g>
<defs>
<clipPath id="clip0_31449_5581">
<rect width="23" height="23" fill="white" transform="translate(0 0.960938)"/>
</clipPath>
</defs>
</svg>
