<svg width="21" height="15" viewBox="0 0 21 15" fill="none" xmlns="http://www.w3.org/2000/svg">
<path d="M19 0.111328C20.1046 0.111328 21 1.00676 21 2.11133V12.8115L20.9893 13.0156C20.8937 13.9571 20.1456 14.7053 19.2041 14.8008L19 14.8115H2L1.7959 14.8008C0.854402 14.7053 0.106283 13.9571 0.0107422 13.0156L0 12.8115V2.11133C0 1.00676 0.895431 0.111328 2 0.111328H19ZM10.5 10.6113L1.5 4.31152V12.8115C1.50011 13.0876 1.72392 13.3115 2 13.3115H19C19.2761 13.3115 19.4999 13.0876 19.5 12.8115V4.31152L10.5 10.6113ZM2 1.61133C1.72386 1.61133 1.5 1.83519 1.5 2.11133V2.47949L10.5 8.78027L19.5 2.48047V2.11133C19.5 1.83519 19.2761 1.61133 19 1.61133H2Z" fill="#795CF5"/>
</svg>
